<svg xmlns="http://www.w3.org/2000/svg" version="1.1" xmlns:xlink="http://www.w3.org/1999/xlink" xmlns:svgjs="http://svgjs.dev/svgjs" width="1440" height="650" preserveAspectRatio="none" viewBox="0 0 1440 650"><g mask="url(&quot;#SvgjsMask1010&quot;)" fill="none"><rect width="1440" height="650" x="0" y="0" fill="rgba(2, 18, 34, 1)"></rect><path d="M-51.85 531.7L-51.85 531.7" stroke="rgba(4, 32, 88, 1)" stroke-width="1.5"></path><path d="M-51.85 531.7L-92.31 646.3" stroke="rgba(4, 32, 88, 1)" stroke-width="1.5"></path><path d="M-51.85 531.7L111.98 527.84" stroke="rgba(4, 32, 88, 1)" stroke-width="1.5"></path><path d="M-51.85 531.7L55.27 701.31" stroke="rgba(4, 32, 88, 1)" stroke-width="1.5"></path><path d="M-51.85 531.7L92.67 389.5" stroke="rgba(4, 32, 88, 1)" stroke-width="1.5"></path><path d="M-51.85 531.7L225.13 519.92" stroke="rgba(4, 32, 88, 1)" stroke-width="1.5"></path><path d="M-92.31 646.3L-92.31 646.3" stroke="rgba(4, 32, 88, 1)" stroke-width="1.5"></path><path d="M-92.31 646.3L55.27 701.31" stroke="rgba(4, 32, 88, 1)" stroke-width="1.5"></path><path d="M-92.31 646.3L-91.16 845.22" stroke="rgba(4, 32, 88, 1)" stroke-width="1.5"></path><path d="M-92.31 646.3L111.98 527.84" stroke="rgba(4, 32, 88, 1)" stroke-width="1.5"></path><path d="M-92.31 646.3L91.95 849.11" stroke="rgba(4, 32, 88, 1)" stroke-width="1.5"></path><path d="M-92.31 646.3L92.67 389.5" stroke="rgba(4, 32, 88, 1)" stroke-width="1.5"></path><path d="M-91.16 845.22L-91.16 845.22" stroke="rgba(4, 32, 88, 1)" stroke-width="1.5"></path><path d="M-91.16 845.22L91.95 849.11" stroke="rgba(4, 32, 88, 1)" stroke-width="1.5"></path><path d="M-91.16 845.22L55.27 701.31" stroke="rgba(4, 32, 88, 1)" stroke-width="1.5"></path><path d="M-91.16 845.22L-51.85 531.7" stroke="rgba(4, 32, 88, 1)" stroke-width="1.5"></path><path d="M92.67 389.5L92.67 389.5" stroke="rgba(4, 32, 88, 1)" stroke-width="1.5"></path><path d="M92.67 389.5L111.98 527.84" stroke="rgba(4, 32, 88, 1)" stroke-width="1.5"></path><path d="M92.67 389.5L225.13 519.92" stroke="rgba(4, 32, 88, 1)" stroke-width="1.5"></path><path d="M92.67 389.5L358.57 489.89" stroke="rgba(4, 32, 88, 1)" stroke-width="1.5"></path><path d="M92.67 389.5L227.13 659.88" stroke="rgba(4, 32, 88, 1)" stroke-width="1.5"></path><path d="M111.98 527.84L111.98 527.84" stroke="rgba(4, 32, 88, 1)" stroke-width="1.5"></path><path d="M111.98 527.84L225.13 519.92" stroke="rgba(4, 32, 88, 1)" stroke-width="1.5"></path><path d="M111.98 527.84L227.13 659.88" stroke="rgba(4, 32, 88, 1)" stroke-width="1.5"></path><path d="M55.27 701.31L55.27 701.31" stroke="rgba(4, 32, 88, 1)" stroke-width="1.5"></path><path d="M55.27 701.31L91.95 849.11" stroke="rgba(4, 32, 88, 1)" stroke-width="1.5"></path><path d="M55.27 701.31L227.13 659.88" stroke="rgba(4, 32, 88, 1)" stroke-width="1.5"></path><path d="M55.27 701.31L111.98 527.84" stroke="rgba(4, 32, 88, 1)" stroke-width="1.5"></path><path d="M91.95 849.11L91.95 849.11" stroke="rgba(4, 32, 88, 1)" stroke-width="1.5"></path><path d="M91.95 849.11L251.82 789.47" stroke="rgba(4, 32, 88, 1)" stroke-width="1.5"></path><path d="M225.13 519.92L225.13 519.92" stroke="rgba(4, 32, 88, 1)" stroke-width="1.5"></path><path d="M225.13 519.92L358.57 489.89" stroke="rgba(4, 32, 88, 1)" stroke-width="1.5"></path><path d="M225.13 519.92L227.13 659.88" stroke="rgba(4, 32, 88, 1)" stroke-width="1.5"></path><path d="M225.13 519.92L347.98 646.85" stroke="rgba(4, 32, 88, 1)" stroke-width="1.5"></path><path d="M227.13 659.88L227.13 659.88" stroke="rgba(4, 32, 88, 1)" stroke-width="1.5"></path><path d="M227.13 659.88L347.98 646.85" stroke="rgba(4, 32, 88, 1)" stroke-width="1.5"></path><path d="M227.13 659.88L251.82 789.47" stroke="rgba(4, 32, 88, 1)" stroke-width="1.5"></path><path d="M251.82 789.47L251.82 789.47" stroke="rgba(4, 32, 88, 1)" stroke-width="1.5"></path><path d="M251.82 789.47L367.94 853.52" stroke="rgba(4, 32, 88, 1)" stroke-width="1.5"></path><path d="M358.57 489.89L358.57 489.89" stroke="rgba(4, 32, 88, 1)" stroke-width="1.5"></path><path d="M358.57 489.89L347.98 646.85" stroke="rgba(4, 32, 88, 1)" stroke-width="1.5"></path><path d="M358.57 489.89L492.92 644.73" stroke="rgba(4, 32, 88, 1)" stroke-width="1.5"></path><path d="M358.57 489.89L561.97 550.09" stroke="rgba(4, 32, 88, 1)" stroke-width="1.5"></path><path d="M358.57 489.89L227.13 659.88" stroke="rgba(4, 32, 88, 1)" stroke-width="1.5"></path><path d="M347.98 646.85L347.98 646.85" stroke="rgba(4, 32, 88, 1)" stroke-width="1.5"></path><path d="M347.98 646.85L492.92 644.73" stroke="rgba(4, 32, 88, 1)" stroke-width="1.5"></path><path d="M347.98 646.85L251.82 789.47" stroke="rgba(4, 32, 88, 1)" stroke-width="1.5"></path><path d="M367.94 853.52L367.94 853.52" stroke="rgba(4, 32, 88, 1)" stroke-width="1.5"></path><path d="M367.94 853.52L537.61 860.8" stroke="rgba(4, 32, 88, 1)" stroke-width="1.5"></path><path d="M367.94 853.52L347.98 646.85" stroke="rgba(4, 32, 88, 1)" stroke-width="1.5"></path><path d="M561.97 550.09L561.97 550.09" stroke="rgba(4, 32, 88, 1)" stroke-width="1.5"></path><path d="M561.97 550.09L492.92 644.73" stroke="rgba(4, 32, 88, 1)" stroke-width="1.5"></path><path d="M561.97 550.09L690.52 500.51" stroke="rgba(4, 32, 88, 1)" stroke-width="1.5"></path><path d="M561.97 550.09L662.99 667.15" stroke="rgba(4, 32, 88, 1)" stroke-width="1.5"></path><path d="M561.97 550.09L705.54 405.23" stroke="rgba(4, 32, 88, 1)" stroke-width="1.5"></path><path d="M492.92 644.73L492.92 644.73" stroke="rgba(4, 32, 88, 1)" stroke-width="1.5"></path><path d="M492.92 644.73L662.99 667.15" stroke="rgba(4, 32, 88, 1)" stroke-width="1.5"></path><path d="M537.61 860.8L537.61 860.8" stroke="rgba(4, 32, 88, 1)" stroke-width="1.5"></path><path d="M537.61 860.8L664.57 799.15" stroke="rgba(4, 32, 88, 1)" stroke-width="1.5"></path><path d="M537.61 860.8L492.92 644.73" stroke="rgba(4, 32, 88, 1)" stroke-width="1.5"></path><path d="M537.61 860.8L662.99 667.15" stroke="rgba(4, 32, 88, 1)" stroke-width="1.5"></path><path d="M705.54 405.23L705.54 405.23" stroke="rgba(4, 32, 88, 1)" stroke-width="1.5"></path><path d="M705.54 405.23L690.52 500.51" stroke="rgba(4, 32, 88, 1)" stroke-width="1.5"></path><path d="M705.54 405.23L793.3 355.39" stroke="rgba(4, 32, 88, 1)" stroke-width="1.5"></path><path d="M705.54 405.23L859.96 540.02" stroke="rgba(4, 32, 88, 1)" stroke-width="1.5"></path><path d="M690.52 500.51L690.52 500.51" stroke="rgba(4, 32, 88, 1)" stroke-width="1.5"></path><path d="M690.52 500.51L662.99 667.15" stroke="rgba(4, 32, 88, 1)" stroke-width="1.5"></path><path d="M662.99 667.15L662.99 667.15" stroke="rgba(4, 32, 88, 1)" stroke-width="1.5"></path><path d="M662.99 667.15L664.57 799.15" stroke="rgba(4, 32, 88, 1)" stroke-width="1.5"></path><path d="M662.99 667.15L810.23 704.72" stroke="rgba(4, 32, 88, 1)" stroke-width="1.5"></path><path d="M664.57 799.15L664.57 799.15" stroke="rgba(4, 32, 88, 1)" stroke-width="1.5"></path><path d="M664.57 799.15L817.02 842.85" stroke="rgba(4, 32, 88, 1)" stroke-width="1.5"></path><path d="M664.57 799.15L810.23 704.72" stroke="rgba(4, 32, 88, 1)" stroke-width="1.5"></path><path d="M664.57 799.15L492.92 644.73" stroke="rgba(4, 32, 88, 1)" stroke-width="1.5"></path><path d="M847.78 230.54L847.78 230.54" stroke="rgba(4, 32, 88, 1)" stroke-width="1.5"></path><path d="M847.78 230.54L949.94 221.69" stroke="rgba(4, 32, 88, 1)" stroke-width="1.5"></path><path d="M847.78 230.54L793.3 355.39" stroke="rgba(4, 32, 88, 1)" stroke-width="1.5"></path><path d="M847.78 230.54L973.69 355.11" stroke="rgba(4, 32, 88, 1)" stroke-width="1.5"></path><path d="M847.78 230.54L945.41 61.13" stroke="rgba(4, 32, 88, 1)" stroke-width="1.5"></path><path d="M847.78 230.54L705.54 405.23" stroke="rgba(4, 32, 88, 1)" stroke-width="1.5"></path><path d="M847.78 230.54L1106.24 224.88" stroke="rgba(4, 32, 88, 1)" stroke-width="1.5"></path><path d="M793.3 355.39L793.3 355.39" stroke="rgba(4, 32, 88, 1)" stroke-width="1.5"></path><path d="M793.3 355.39L690.52 500.51" stroke="rgba(4, 32, 88, 1)" stroke-width="1.5"></path><path d="M793.3 355.39L973.69 355.11" stroke="rgba(4, 32, 88, 1)" stroke-width="1.5"></path><path d="M859.96 540.02L859.96 540.02" stroke="rgba(4, 32, 88, 1)" stroke-width="1.5"></path><path d="M859.96 540.02L1007.44 516.42" stroke="rgba(4, 32, 88, 1)" stroke-width="1.5"></path><path d="M859.96 540.02L810.23 704.72" stroke="rgba(4, 32, 88, 1)" stroke-width="1.5"></path><path d="M859.96 540.02L690.52 500.51" stroke="rgba(4, 32, 88, 1)" stroke-width="1.5"></path><path d="M859.96 540.02L793.3 355.39" stroke="rgba(4, 32, 88, 1)" stroke-width="1.5"></path><path d="M810.23 704.72L810.23 704.72" stroke="rgba(4, 32, 88, 1)" stroke-width="1.5"></path><path d="M810.23 704.72L817.02 842.85" stroke="rgba(4, 32, 88, 1)" stroke-width="1.5"></path><path d="M817.02 842.85L817.02 842.85" stroke="rgba(4, 32, 88, 1)" stroke-width="1.5"></path><path d="M817.02 842.85L1001.16 820.24" stroke="rgba(4, 32, 88, 1)" stroke-width="1.5"></path><path d="M817.02 842.85L662.99 667.15" stroke="rgba(4, 32, 88, 1)" stroke-width="1.5"></path><path d="M817.02 842.85L996.35 690.48" stroke="rgba(4, 32, 88, 1)" stroke-width="1.5"></path><path d="M817.02 842.85L537.61 860.8" stroke="rgba(4, 32, 88, 1)" stroke-width="1.5"></path><path d="M1011.75 -49.23L1011.75 -49.23" stroke="rgba(4, 32, 88, 1)" stroke-width="1.5"></path><path d="M1011.75 -49.23L1114.67 -55.44" stroke="rgba(4, 32, 88, 1)" stroke-width="1.5"></path><path d="M1011.75 -49.23L945.41 61.13" stroke="rgba(4, 32, 88, 1)" stroke-width="1.5"></path><path d="M1011.75 -49.23L1150.94 62.87" stroke="rgba(4, 32, 88, 1)" stroke-width="1.5"></path><path d="M1011.75 -49.23L1263.91 -101.12" stroke="rgba(4, 32, 88, 1)" stroke-width="1.5"></path><path d="M1011.75 -49.23L949.94 221.69" stroke="rgba(4, 32, 88, 1)" stroke-width="1.5"></path><path d="M945.41 61.13L945.41 61.13" stroke="rgba(4, 32, 88, 1)" stroke-width="1.5"></path><path d="M945.41 61.13L949.94 221.69" stroke="rgba(4, 32, 88, 1)" stroke-width="1.5"></path><path d="M949.94 221.69L949.94 221.69" stroke="rgba(4, 32, 88, 1)" stroke-width="1.5"></path><path d="M949.94 221.69L973.69 355.11" stroke="rgba(4, 32, 88, 1)" stroke-width="1.5"></path><path d="M949.94 221.69L1106.24 224.88" stroke="rgba(4, 32, 88, 1)" stroke-width="1.5"></path><path d="M949.94 221.69L793.3 355.39" stroke="rgba(4, 32, 88, 1)" stroke-width="1.5"></path><path d="M973.69 355.11L973.69 355.11" stroke="rgba(4, 32, 88, 1)" stroke-width="1.5"></path><path d="M973.69 355.11L1103.95 376.25" stroke="rgba(4, 32, 88, 1)" stroke-width="1.5"></path><path d="M973.69 355.11L1007.44 516.42" stroke="rgba(4, 32, 88, 1)" stroke-width="1.5"></path><path d="M1007.44 516.42L1007.44 516.42" stroke="rgba(4, 32, 88, 1)" stroke-width="1.5"></path><path d="M1007.44 516.42L1156.2 511.53" stroke="rgba(4, 32, 88, 1)" stroke-width="1.5"></path><path d="M996.35 690.48L996.35 690.48" stroke="rgba(4, 32, 88, 1)" stroke-width="1.5"></path><path d="M996.35 690.48L1091.79 671.58" stroke="rgba(4, 32, 88, 1)" stroke-width="1.5"></path><path d="M996.35 690.48L1001.16 820.24" stroke="rgba(4, 32, 88, 1)" stroke-width="1.5"></path><path d="M996.35 690.48L1007.44 516.42" stroke="rgba(4, 32, 88, 1)" stroke-width="1.5"></path><path d="M996.35 690.48L1144.59 801.74" stroke="rgba(4, 32, 88, 1)" stroke-width="1.5"></path><path d="M996.35 690.48L810.23 704.72" stroke="rgba(4, 32, 88, 1)" stroke-width="1.5"></path><path d="M1001.16 820.24L1001.16 820.24" stroke="rgba(4, 32, 88, 1)" stroke-width="1.5"></path><path d="M1001.16 820.24L1144.59 801.74" stroke="rgba(4, 32, 88, 1)" stroke-width="1.5"></path><path d="M1001.16 820.24L1091.79 671.58" stroke="rgba(4, 32, 88, 1)" stroke-width="1.5"></path><path d="M1001.16 820.24L810.23 704.72" stroke="rgba(4, 32, 88, 1)" stroke-width="1.5"></path><path d="M1114.67 -55.44L1114.67 -55.44" stroke="rgba(4, 32, 88, 1)" stroke-width="1.5"></path><path d="M1114.67 -55.44L1150.94 62.87" stroke="rgba(4, 32, 88, 1)" stroke-width="1.5"></path><path d="M1150.94 62.87L1150.94 62.87" stroke="rgba(4, 32, 88, 1)" stroke-width="1.5"></path><path d="M1150.94 62.87L1283.95 78.67" stroke="rgba(4, 32, 88, 1)" stroke-width="1.5"></path><path d="M1150.94 62.87L1106.24 224.88" stroke="rgba(4, 32, 88, 1)" stroke-width="1.5"></path><path d="M1106.24 224.88L1106.24 224.88" stroke="rgba(4, 32, 88, 1)" stroke-width="1.5"></path><path d="M1106.24 224.88L1103.95 376.25" stroke="rgba(4, 32, 88, 1)" stroke-width="1.5"></path><path d="M1106.24 224.88L1281.43 249.83" stroke="rgba(4, 32, 88, 1)" stroke-width="1.5"></path><path d="M1103.95 376.25L1103.95 376.25" stroke="rgba(4, 32, 88, 1)" stroke-width="1.5"></path><path d="M1103.95 376.25L1240.27 388.88" stroke="rgba(4, 32, 88, 1)" stroke-width="1.5"></path><path d="M1103.95 376.25L1156.2 511.53" stroke="rgba(4, 32, 88, 1)" stroke-width="1.5"></path><path d="M1156.2 511.53L1156.2 511.53" stroke="rgba(4, 32, 88, 1)" stroke-width="1.5"></path><path d="M1156.2 511.53L1281.64 501.64" stroke="rgba(4, 32, 88, 1)" stroke-width="1.5"></path><path d="M1156.2 511.53L1240.27 388.88" stroke="rgba(4, 32, 88, 1)" stroke-width="1.5"></path><path d="M1156.2 511.53L1091.79 671.58" stroke="rgba(4, 32, 88, 1)" stroke-width="1.5"></path><path d="M1091.79 671.58L1091.79 671.58" stroke="rgba(4, 32, 88, 1)" stroke-width="1.5"></path><path d="M1091.79 671.58L1144.59 801.74" stroke="rgba(4, 32, 88, 1)" stroke-width="1.5"></path><path d="M1144.59 801.74L1144.59 801.74" stroke="rgba(4, 32, 88, 1)" stroke-width="1.5"></path><path d="M1144.59 801.74L1269.94 861.64" stroke="rgba(4, 32, 88, 1)" stroke-width="1.5"></path><path d="M1263.91 -101.12L1263.91 -101.12" stroke="rgba(4, 32, 88, 1)" stroke-width="1.5"></path><path d="M1263.91 -101.12L1114.67 -55.44" stroke="rgba(4, 32, 88, 1)" stroke-width="1.5"></path><path d="M1263.91 -101.12L1283.95 78.67" stroke="rgba(4, 32, 88, 1)" stroke-width="1.5"></path><path d="M1263.91 -101.12L1453.65 -77.1" stroke="rgba(4, 32, 88, 1)" stroke-width="1.5"></path><path d="M1263.91 -101.12L1150.94 62.87" stroke="rgba(4, 32, 88, 1)" stroke-width="1.5"></path><path d="M1283.95 78.67L1283.95 78.67" stroke="rgba(4, 32, 88, 1)" stroke-width="1.5"></path><path d="M1283.95 78.67L1281.43 249.83" stroke="rgba(4, 32, 88, 1)" stroke-width="1.5"></path><path d="M1281.43 249.83L1281.43 249.83" stroke="rgba(4, 32, 88, 1)" stroke-width="1.5"></path><path d="M1281.43 249.83L1240.27 388.88" stroke="rgba(4, 32, 88, 1)" stroke-width="1.5"></path><path d="M1281.43 249.83L1436.11 203.66" stroke="rgba(4, 32, 88, 1)" stroke-width="1.5"></path><path d="M1240.27 388.88L1240.27 388.88" stroke="rgba(4, 32, 88, 1)" stroke-width="1.5"></path><path d="M1240.27 388.88L1281.64 501.64" stroke="rgba(4, 32, 88, 1)" stroke-width="1.5"></path><path d="M1240.27 388.88L1416.21 410.02" stroke="rgba(4, 32, 88, 1)" stroke-width="1.5"></path><path d="M1240.27 388.88L1106.24 224.88" stroke="rgba(4, 32, 88, 1)" stroke-width="1.5"></path><path d="M1281.64 501.64L1281.64 501.64" stroke="rgba(4, 32, 88, 1)" stroke-width="1.5"></path><path d="M1281.64 501.64L1416.21 410.02" stroke="rgba(4, 32, 88, 1)" stroke-width="1.5"></path><path d="M1281.64 501.64L1282 670.8" stroke="rgba(4, 32, 88, 1)" stroke-width="1.5"></path><path d="M1281.64 501.64L1103.95 376.25" stroke="rgba(4, 32, 88, 1)" stroke-width="1.5"></path><path d="M1282 670.8L1282 670.8" stroke="rgba(4, 32, 88, 1)" stroke-width="1.5"></path><path d="M1282 670.8L1461.84 700.36" stroke="rgba(4, 32, 88, 1)" stroke-width="1.5"></path><path d="M1282 670.8L1144.59 801.74" stroke="rgba(4, 32, 88, 1)" stroke-width="1.5"></path><path d="M1269.94 861.64L1269.94 861.64" stroke="rgba(4, 32, 88, 1)" stroke-width="1.5"></path><path d="M1269.94 861.64L1282 670.8" stroke="rgba(4, 32, 88, 1)" stroke-width="1.5"></path><path d="M1269.94 861.64L1461.84 700.36" stroke="rgba(4, 32, 88, 1)" stroke-width="1.5"></path><path d="M1453.65 -77.1L1453.65 -77.1" stroke="rgba(4, 32, 88, 1)" stroke-width="1.5"></path><path d="M1453.65 -77.1L1592.58 -96.05" stroke="rgba(4, 32, 88, 1)" stroke-width="1.5"></path><path d="M1453.65 -77.1L1598.08 52.31" stroke="rgba(4, 32, 88, 1)" stroke-width="1.5"></path><path d="M1453.65 -77.1L1283.95 78.67" stroke="rgba(4, 32, 88, 1)" stroke-width="1.5"></path><path d="M1436.11 203.66L1436.11 203.66" stroke="rgba(4, 32, 88, 1)" stroke-width="1.5"></path><path d="M1436.11 203.66L1608.68 190.21" stroke="rgba(4, 32, 88, 1)" stroke-width="1.5"></path><path d="M1436.11 203.66L1283.95 78.67" stroke="rgba(4, 32, 88, 1)" stroke-width="1.5"></path><path d="M1436.11 203.66L1416.21 410.02" stroke="rgba(4, 32, 88, 1)" stroke-width="1.5"></path><path d="M1436.11 203.66L1598.08 52.31" stroke="rgba(4, 32, 88, 1)" stroke-width="1.5"></path><path d="M1436.11 203.66L1611.66 396.34" stroke="rgba(4, 32, 88, 1)" stroke-width="1.5"></path><path d="M1416.21 410.02L1416.21 410.02" stroke="rgba(4, 32, 88, 1)" stroke-width="1.5"></path><path d="M1461.84 700.36L1461.84 700.36" stroke="rgba(4, 32, 88, 1)" stroke-width="1.5"></path><path d="M1461.84 700.36L1572.2 688.15" stroke="rgba(4, 32, 88, 1)" stroke-width="1.5"></path><path d="M1461.84 700.36L1561.29 791.27" stroke="rgba(4, 32, 88, 1)" stroke-width="1.5"></path><path d="M1461.84 700.36L1560.78 487.53" stroke="rgba(4, 32, 88, 1)" stroke-width="1.5"></path><path d="M1592.58 -96.05L1592.58 -96.05" stroke="rgba(4, 32, 88, 1)" stroke-width="1.5"></path><path d="M1592.58 -96.05L1598.08 52.31" stroke="rgba(4, 32, 88, 1)" stroke-width="1.5"></path><path d="M1592.58 -96.05L1608.68 190.21" stroke="rgba(4, 32, 88, 1)" stroke-width="1.5"></path><path d="M1592.58 -96.05L1263.91 -101.12" stroke="rgba(4, 32, 88, 1)" stroke-width="1.5"></path><path d="M1592.58 -96.05L1436.11 203.66" stroke="rgba(4, 32, 88, 1)" stroke-width="1.5"></path><path d="M1598.08 52.31L1598.08 52.31" stroke="rgba(4, 32, 88, 1)" stroke-width="1.5"></path><path d="M1598.08 52.31L1608.68 190.21" stroke="rgba(4, 32, 88, 1)" stroke-width="1.5"></path><path d="M1598.08 52.31L1283.95 78.67" stroke="rgba(4, 32, 88, 1)" stroke-width="1.5"></path><path d="M1608.68 190.21L1608.68 190.21" stroke="rgba(4, 32, 88, 1)" stroke-width="1.5"></path><path d="M1611.66 396.34L1611.66 396.34" stroke="rgba(4, 32, 88, 1)" stroke-width="1.5"></path><path d="M1611.66 396.34L1560.78 487.53" stroke="rgba(4, 32, 88, 1)" stroke-width="1.5"></path><path d="M1611.66 396.34L1416.21 410.02" stroke="rgba(4, 32, 88, 1)" stroke-width="1.5"></path><path d="M1560.78 487.53L1560.78 487.53" stroke="rgba(4, 32, 88, 1)" stroke-width="1.5"></path><path d="M1560.78 487.53L1416.21 410.02" stroke="rgba(4, 32, 88, 1)" stroke-width="1.5"></path><path d="M1560.78 487.53L1572.2 688.15" stroke="rgba(4, 32, 88, 1)" stroke-width="1.5"></path><path d="M1572.2 688.15L1572.2 688.15" stroke="rgba(4, 32, 88, 1)" stroke-width="1.5"></path><path d="M1572.2 688.15L1561.29 791.27" stroke="rgba(4, 32, 88, 1)" stroke-width="1.5"></path><path d="M1561.29 791.27L1561.29 791.27" stroke="rgba(4, 32, 88, 1)" stroke-width="1.5"></path><path d="M1561.29 791.27L1269.94 861.64" stroke="rgba(4, 32, 88, 1)" stroke-width="1.5"></path><path d="M1561.29 791.27L1560.78 487.53" stroke="rgba(4, 32, 88, 1)" stroke-width="1.5"></path><circle r="5" cx="-51.85" cy="531.7" fill="rgba(4, 32, 88, 1)"></circle><circle r="5" cx="-92.31" cy="646.3" fill="rgba(4, 32, 88, 1)"></circle><circle r="5" cx="-91.16" cy="845.22" fill="rgba(4, 32, 88, 1)"></circle><circle r="5" cx="92.67" cy="389.5" fill="rgba(4, 32, 88, 1)"></circle><circle r="5" cx="111.98" cy="527.84" fill="rgba(4, 32, 88, 1)"></circle><circle r="5" cx="55.27" cy="701.31" fill="rgba(4, 32, 88, 1)"></circle><circle r="5" cx="91.95" cy="849.11" fill="rgba(4, 32, 88, 1)"></circle><circle r="5" cx="225.13" cy="519.92" fill="rgba(4, 32, 88, 1)"></circle><circle r="5" cx="227.13" cy="659.88" fill="rgba(4, 32, 88, 1)"></circle><circle r="5" cx="251.82" cy="789.47" fill="rgba(4, 32, 88, 1)"></circle><circle r="5" cx="358.57" cy="489.89" fill="rgba(4, 32, 88, 1)"></circle><circle r="5" cx="347.98" cy="646.85" fill="rgba(4, 32, 88, 1)"></circle><circle r="5" cx="367.94" cy="853.52" fill="rgba(4, 32, 88, 1)"></circle><circle r="5" cx="561.97" cy="550.09" fill="rgba(4, 32, 88, 1)"></circle><circle r="5" cx="492.92" cy="644.73" fill="rgba(4, 32, 88, 1)"></circle><circle r="5" cx="537.61" cy="860.8" fill="rgba(4, 32, 88, 1)"></circle><circle r="5" cx="705.54" cy="405.23" fill="rgba(4, 32, 88, 1)"></circle><circle r="5" cx="690.52" cy="500.51" fill="rgba(4, 32, 88, 1)"></circle><circle r="5" cx="662.99" cy="667.15" fill="rgba(4, 32, 88, 1)"></circle><circle r="5" cx="664.57" cy="799.15" fill="rgba(4, 32, 88, 1)"></circle><circle r="5" cx="847.78" cy="230.54" fill="rgba(4, 32, 88, 1)"></circle><circle r="5" cx="793.3" cy="355.39" fill="rgba(4, 32, 88, 1)"></circle><circle r="5" cx="859.96" cy="540.02" fill="rgba(4, 32, 88, 1)"></circle><circle r="5" cx="810.23" cy="704.72" fill="rgba(4, 32, 88, 1)"></circle><circle r="5" cx="817.02" cy="842.85" fill="rgba(4, 32, 88, 1)"></circle><circle r="5" cx="1011.75" cy="-49.23" fill="rgba(4, 32, 88, 1)"></circle><circle r="5" cx="945.41" cy="61.13" fill="rgba(4, 32, 88, 1)"></circle><circle r="5" cx="949.94" cy="221.69" fill="rgba(4, 32, 88, 1)"></circle><circle r="5" cx="973.69" cy="355.11" fill="rgba(4, 32, 88, 1)"></circle><circle r="5" cx="1007.44" cy="516.42" fill="rgba(4, 32, 88, 1)"></circle><circle r="5" cx="996.35" cy="690.48" fill="rgba(4, 32, 88, 1)"></circle><circle r="5" cx="1001.16" cy="820.24" fill="rgba(4, 32, 88, 1)"></circle><circle r="5" cx="1114.67" cy="-55.44" fill="rgba(4, 32, 88, 1)"></circle><circle r="5" cx="1150.94" cy="62.87" fill="rgba(4, 32, 88, 1)"></circle><circle r="5" cx="1106.24" cy="224.88" fill="rgba(4, 32, 88, 1)"></circle><circle r="5" cx="1103.95" cy="376.25" fill="rgba(4, 32, 88, 1)"></circle><circle r="5" cx="1156.2" cy="511.53" fill="rgba(4, 32, 88, 1)"></circle><circle r="5" cx="1091.79" cy="671.58" fill="rgba(4, 32, 88, 1)"></circle><circle r="5" cx="1144.59" cy="801.74" fill="rgba(4, 32, 88, 1)"></circle><circle r="5" cx="1263.91" cy="-101.12" fill="rgba(4, 32, 88, 1)"></circle><circle r="5" cx="1283.95" cy="78.67" fill="rgba(4, 32, 88, 1)"></circle><circle r="5" cx="1281.43" cy="249.83" fill="rgba(4, 32, 88, 1)"></circle><circle r="5" cx="1240.27" cy="388.88" fill="rgba(4, 32, 88, 1)"></circle><circle r="5" cx="1281.64" cy="501.64" fill="rgba(4, 32, 88, 1)"></circle><circle r="5" cx="1282" cy="670.8" fill="rgba(4, 32, 88, 1)"></circle><circle r="5" cx="1269.94" cy="861.64" fill="rgba(4, 32, 88, 1)"></circle><circle r="5" cx="1453.65" cy="-77.1" fill="rgba(4, 32, 88, 1)"></circle><circle r="5" cx="1436.11" cy="203.66" fill="rgba(4, 32, 88, 1)"></circle><circle r="5" cx="1416.21" cy="410.02" fill="rgba(4, 32, 88, 1)"></circle><circle r="5" cx="1461.84" cy="700.36" fill="rgba(4, 32, 88, 1)"></circle><circle r="5" cx="1592.58" cy="-96.05" fill="rgba(4, 32, 88, 1)"></circle><circle r="5" cx="1598.08" cy="52.31" fill="rgba(4, 32, 88, 1)"></circle><circle r="5" cx="1608.68" cy="190.21" fill="rgba(4, 32, 88, 1)"></circle><circle r="5" cx="1611.66" cy="396.34" fill="rgba(4, 32, 88, 1)"></circle><circle r="5" cx="1560.78" cy="487.53" fill="rgba(4, 32, 88, 1)"></circle><circle r="5" cx="1572.2" cy="688.15" fill="rgba(4, 32, 88, 1)"></circle><circle r="5" cx="1561.29" cy="791.27" fill="rgba(4, 32, 88, 1)"></circle><path d="M-111.63 531.17L-111.63 531.17" stroke="hsl(228, 90.9%, 16.8%)" stroke-width="1.5"></path><path d="M-111.63 531.17L-86.13 673.91" stroke="hsl(228, 90.9%, 16.8%)" stroke-width="1.5"></path><path d="M-111.63 531.17L81.42 525.21" stroke="hsl(228, 90.9%, 16.8%)" stroke-width="1.5"></path><path d="M-111.63 531.17L68.39 643.77" stroke="hsl(228, 90.9%, 16.8%)" stroke-width="1.5"></path><path d="M-111.63 531.17L-71.24 810.09" stroke="hsl(228, 90.9%, 16.8%)" stroke-width="1.5"></path><path d="M55.26 829.26L55.26 829.26" stroke="hsl(228, 90.9%, 16.8%)" stroke-width="1.5"></path><path d="M55.26 829.26L-71.24 810.09" stroke="hsl(228, 90.9%, 16.8%)" stroke-width="1.5"></path><path d="M55.26 829.26L191.82 827.33" stroke="hsl(228, 90.9%, 16.8%)" stroke-width="1.5"></path><path d="M55.26 829.26L68.39 643.77" stroke="hsl(228, 90.9%, 16.8%)" stroke-width="1.5"></path><path d="M191.82 827.33L191.82 827.33" stroke="hsl(228, 90.9%, 16.8%)" stroke-width="1.5"></path><path d="M191.82 827.33L262.29 645.15" stroke="hsl(228, 90.9%, 16.8%)" stroke-width="1.5"></path><path d="M191.82 827.33L354.9 682.21" stroke="hsl(228, 90.9%, 16.8%)" stroke-width="1.5"></path><path d="M679.45 531.59L679.45 531.59" stroke="hsl(228, 90.9%, 16.8%)" stroke-width="1.5"></path><path d="M679.45 531.59L517.2 557.51" stroke="hsl(228, 90.9%, 16.8%)" stroke-width="1.5"></path><path d="M679.45 531.59L845.24 537.31" stroke="hsl(228, 90.9%, 16.8%)" stroke-width="1.5"></path><path d="M845.24 537.31L845.24 537.31" stroke="hsl(228, 90.9%, 16.8%)" stroke-width="1.5"></path><path d="M845.24 537.31L812.73 671.55" stroke="hsl(228, 90.9%, 16.8%)" stroke-width="1.5"></path><path d="M845.24 537.31L997.05 544.55" stroke="hsl(228, 90.9%, 16.8%)" stroke-width="1.5"></path><path d="M812.73 671.55L812.73 671.55" stroke="hsl(228, 90.9%, 16.8%)" stroke-width="1.5"></path><path d="M812.73 671.55L844.27 813.35" stroke="hsl(228, 90.9%, 16.8%)" stroke-width="1.5"></path><path d="M1292.09 390.72L1292.09 390.72" stroke="hsl(228, 90.9%, 16.8%)" stroke-width="1.5"></path><path d="M1292.09 390.72L1260.87 510.85" stroke="hsl(228, 90.9%, 16.8%)" stroke-width="1.5"></path><path d="M1292.09 390.72L1422.06 377.57" stroke="hsl(228, 90.9%, 16.8%)" stroke-width="1.5"></path><path d="M1292.09 390.72L1160.73 344.93" stroke="hsl(228, 90.9%, 16.8%)" stroke-width="1.5"></path><path d="M1446.97 -111.95L1446.97 -111.95" stroke="hsl(228, 90.9%, 16.8%)" stroke-width="1.5"></path><path d="M1446.97 -111.95L1553.63 -49.49" stroke="hsl(228, 90.9%, 16.8%)" stroke-width="1.5"></path><path d="M1446.97 -111.95L1420.35 64.84" stroke="hsl(228, 90.9%, 16.8%)" stroke-width="1.5"></path><path d="M1446.97 -111.95L1603.34 56.64" stroke="hsl(228, 90.9%, 16.8%)" stroke-width="1.5"></path><path d="M1398.09 491.91L1398.09 491.91" stroke="hsl(228, 90.9%, 16.8%)" stroke-width="1.5"></path><path d="M1398.09 491.91L1422.06 377.57" stroke="hsl(228, 90.9%, 16.8%)" stroke-width="1.5"></path><path d="M1398.09 491.91L1260.87 510.85" stroke="hsl(228, 90.9%, 16.8%)" stroke-width="1.5"></path><path d="M-86.13 673.91L-86.13 673.91" stroke="hsl(228, 90.9%, 16.8%)" stroke-width="1.5"></path><path d="M-86.13 673.91L-71.24 810.09" stroke="hsl(228, 90.9%, 16.8%)" stroke-width="1.5"></path><path d="M-86.13 673.91L68.39 643.77" stroke="hsl(228, 90.9%, 16.8%)" stroke-width="1.5"></path><path d="M-86.13 673.91L55.26 829.26" stroke="hsl(228, 90.9%, 16.8%)" stroke-width="1.5"></path><path d="M-71.24 810.09L-71.24 810.09" stroke="hsl(228, 90.9%, 16.8%)" stroke-width="1.5"></path><path d="M-71.24 810.09L68.39 643.77" stroke="hsl(228, 90.9%, 16.8%)" stroke-width="1.5"></path><path d="M81.42 525.21L81.42 525.21" stroke="hsl(228, 90.9%, 16.8%)" stroke-width="1.5"></path><path d="M81.42 525.21L68.39 643.77" stroke="hsl(228, 90.9%, 16.8%)" stroke-width="1.5"></path><path d="M81.42 525.21L210.22 512.52" stroke="hsl(228, 90.9%, 16.8%)" stroke-width="1.5"></path><path d="M81.42 525.21L262.29 645.15" stroke="hsl(228, 90.9%, 16.8%)" stroke-width="1.5"></path><path d="M81.42 525.21L-86.13 673.91" stroke="hsl(228, 90.9%, 16.8%)" stroke-width="1.5"></path><path d="M68.39 643.77L68.39 643.77" stroke="hsl(228, 90.9%, 16.8%)" stroke-width="1.5"></path><path d="M68.39 643.77L210.22 512.52" stroke="hsl(228, 90.9%, 16.8%)" stroke-width="1.5"></path><path d="M68.39 643.77L262.29 645.15" stroke="hsl(228, 90.9%, 16.8%)" stroke-width="1.5"></path><path d="M210.22 512.52L210.22 512.52" stroke="hsl(228, 90.9%, 16.8%)" stroke-width="1.5"></path><path d="M262.29 645.15L262.29 645.15" stroke="hsl(228, 90.9%, 16.8%)" stroke-width="1.5"></path><path d="M262.29 645.15L354.9 682.21" stroke="hsl(228, 90.9%, 16.8%)" stroke-width="1.5"></path><path d="M262.29 645.15L210.22 512.52" stroke="hsl(228, 90.9%, 16.8%)" stroke-width="1.5"></path><path d="M354.9 682.21L354.9 682.21" stroke="hsl(228, 90.9%, 16.8%)" stroke-width="1.5"></path><path d="M354.9 682.21L507.07 653.43" stroke="hsl(228, 90.9%, 16.8%)" stroke-width="1.5"></path><path d="M354.9 682.21L517.2 557.51" stroke="hsl(228, 90.9%, 16.8%)" stroke-width="1.5"></path><path d="M354.9 682.21L210.22 512.52" stroke="hsl(228, 90.9%, 16.8%)" stroke-width="1.5"></path><path d="M354.9 682.21L497.62 855.99" stroke="hsl(228, 90.9%, 16.8%)" stroke-width="1.5"></path><path d="M517.2 557.51L517.2 557.51" stroke="hsl(228, 90.9%, 16.8%)" stroke-width="1.5"></path><path d="M517.2 557.51L507.07 653.43" stroke="hsl(228, 90.9%, 16.8%)" stroke-width="1.5"></path><path d="M507.07 653.43L507.07 653.43" stroke="hsl(228, 90.9%, 16.8%)" stroke-width="1.5"></path><path d="M507.07 653.43L497.62 855.99" stroke="hsl(228, 90.9%, 16.8%)" stroke-width="1.5"></path><path d="M497.62 855.99L497.62 855.99" stroke="hsl(228, 90.9%, 16.8%)" stroke-width="1.5"></path><path d="M497.62 855.99L699.63 826.16" stroke="hsl(228, 90.9%, 16.8%)" stroke-width="1.5"></path><path d="M699.63 826.16L699.63 826.16" stroke="hsl(228, 90.9%, 16.8%)" stroke-width="1.5"></path><path d="M699.63 826.16L844.27 813.35" stroke="hsl(228, 90.9%, 16.8%)" stroke-width="1.5"></path><path d="M699.63 826.16L812.73 671.55" stroke="hsl(228, 90.9%, 16.8%)" stroke-width="1.5"></path><path d="M699.63 826.16L507.07 653.43" stroke="hsl(228, 90.9%, 16.8%)" stroke-width="1.5"></path><path d="M699.63 826.16L679.45 531.59" stroke="hsl(228, 90.9%, 16.8%)" stroke-width="1.5"></path><path d="M844.27 813.35L844.27 813.35" stroke="hsl(228, 90.9%, 16.8%)" stroke-width="1.5"></path><path d="M1006.25 380.54L1006.25 380.54" stroke="hsl(228, 90.9%, 16.8%)" stroke-width="1.5"></path><path d="M1006.25 380.54L1160.73 344.93" stroke="hsl(228, 90.9%, 16.8%)" stroke-width="1.5"></path><path d="M1006.25 380.54L997.05 544.55" stroke="hsl(228, 90.9%, 16.8%)" stroke-width="1.5"></path><path d="M1006.25 380.54L1136.42 226.37" stroke="hsl(228, 90.9%, 16.8%)" stroke-width="1.5"></path><path d="M1006.25 380.54L1103.13 558.33" stroke="hsl(228, 90.9%, 16.8%)" stroke-width="1.5"></path><path d="M1006.25 380.54L845.24 537.31" stroke="hsl(228, 90.9%, 16.8%)" stroke-width="1.5"></path><path d="M997.05 544.55L997.05 544.55" stroke="hsl(228, 90.9%, 16.8%)" stroke-width="1.5"></path><path d="M997.05 544.55L1103.13 558.33" stroke="hsl(228, 90.9%, 16.8%)" stroke-width="1.5"></path><path d="M960.71 675.95L960.71 675.95" stroke="hsl(228, 90.9%, 16.8%)" stroke-width="1.5"></path><path d="M960.71 675.95L997.05 544.55" stroke="hsl(228, 90.9%, 16.8%)" stroke-width="1.5"></path><path d="M960.71 675.95L1108.51 678.13" stroke="hsl(228, 90.9%, 16.8%)" stroke-width="1.5"></path><path d="M960.71 675.95L812.73 671.55" stroke="hsl(228, 90.9%, 16.8%)" stroke-width="1.5"></path><path d="M1007.43 826.58L1007.43 826.58" stroke="hsl(228, 90.9%, 16.8%)" stroke-width="1.5"></path><path d="M1007.43 826.58L1135.33 820.85" stroke="hsl(228, 90.9%, 16.8%)" stroke-width="1.5"></path><path d="M1007.43 826.58L960.71 675.95" stroke="hsl(228, 90.9%, 16.8%)" stroke-width="1.5"></path><path d="M1007.43 826.58L844.27 813.35" stroke="hsl(228, 90.9%, 16.8%)" stroke-width="1.5"></path><path d="M1007.43 826.58L1108.51 678.13" stroke="hsl(228, 90.9%, 16.8%)" stroke-width="1.5"></path><path d="M1145.5 79.52L1145.5 79.52" stroke="hsl(228, 90.9%, 16.8%)" stroke-width="1.5"></path><path d="M1145.5 79.52L1239.01 54.43" stroke="hsl(228, 90.9%, 16.8%)" stroke-width="1.5"></path><path d="M1145.5 79.52L1136.42 226.37" stroke="hsl(228, 90.9%, 16.8%)" stroke-width="1.5"></path><path d="M1145.5 79.52L1282.71 217.66" stroke="hsl(228, 90.9%, 16.8%)" stroke-width="1.5"></path><path d="M1145.5 79.52L1160.73 344.93" stroke="hsl(228, 90.9%, 16.8%)" stroke-width="1.5"></path><path d="M1145.5 79.52L1420.35 64.84" stroke="hsl(228, 90.9%, 16.8%)" stroke-width="1.5"></path><path d="M1136.42 226.37L1136.42 226.37" stroke="hsl(228, 90.9%, 16.8%)" stroke-width="1.5"></path><path d="M1136.42 226.37L1160.73 344.93" stroke="hsl(228, 90.9%, 16.8%)" stroke-width="1.5"></path><path d="M1136.42 226.37L1282.71 217.66" stroke="hsl(228, 90.9%, 16.8%)" stroke-width="1.5"></path><path d="M1160.73 344.93L1160.73 344.93" stroke="hsl(228, 90.9%, 16.8%)" stroke-width="1.5"></path><path d="M1103.13 558.33L1103.13 558.33" stroke="hsl(228, 90.9%, 16.8%)" stroke-width="1.5"></path><path d="M1103.13 558.33L1108.51 678.13" stroke="hsl(228, 90.9%, 16.8%)" stroke-width="1.5"></path><path d="M1103.13 558.33L1260.87 510.85" stroke="hsl(228, 90.9%, 16.8%)" stroke-width="1.5"></path><path d="M1103.13 558.33L1237.6 655.91" stroke="hsl(228, 90.9%, 16.8%)" stroke-width="1.5"></path><path d="M1103.13 558.33L960.71 675.95" stroke="hsl(228, 90.9%, 16.8%)" stroke-width="1.5"></path><path d="M1108.51 678.13L1108.51 678.13" stroke="hsl(228, 90.9%, 16.8%)" stroke-width="1.5"></path><path d="M1135.33 820.85L1135.33 820.85" stroke="hsl(228, 90.9%, 16.8%)" stroke-width="1.5"></path><path d="M1135.33 820.85L1277.15 823.43" stroke="hsl(228, 90.9%, 16.8%)" stroke-width="1.5"></path><path d="M1135.33 820.85L1108.51 678.13" stroke="hsl(228, 90.9%, 16.8%)" stroke-width="1.5"></path><path d="M1135.33 820.85L1237.6 655.91" stroke="hsl(228, 90.9%, 16.8%)" stroke-width="1.5"></path><path d="M1135.33 820.85L960.71 675.95" stroke="hsl(228, 90.9%, 16.8%)" stroke-width="1.5"></path><path d="M1239.01 54.43L1239.01 54.43" stroke="hsl(228, 90.9%, 16.8%)" stroke-width="1.5"></path><path d="M1239.01 54.43L1282.71 217.66" stroke="hsl(228, 90.9%, 16.8%)" stroke-width="1.5"></path><path d="M1239.01 54.43L1420.35 64.84" stroke="hsl(228, 90.9%, 16.8%)" stroke-width="1.5"></path><path d="M1282.71 217.66L1282.71 217.66" stroke="hsl(228, 90.9%, 16.8%)" stroke-width="1.5"></path><path d="M1282.71 217.66L1436.2 222.83" stroke="hsl(228, 90.9%, 16.8%)" stroke-width="1.5"></path><path d="M1260.87 510.85L1260.87 510.85" stroke="hsl(228, 90.9%, 16.8%)" stroke-width="1.5"></path><path d="M1237.6 655.91L1237.6 655.91" stroke="hsl(228, 90.9%, 16.8%)" stroke-width="1.5"></path><path d="M1237.6 655.91L1108.51 678.13" stroke="hsl(228, 90.9%, 16.8%)" stroke-width="1.5"></path><path d="M1237.6 655.91L1260.87 510.85" stroke="hsl(228, 90.9%, 16.8%)" stroke-width="1.5"></path><path d="M1237.6 655.91L1277.15 823.43" stroke="hsl(228, 90.9%, 16.8%)" stroke-width="1.5"></path><path d="M1277.15 823.43L1277.15 823.43" stroke="hsl(228, 90.9%, 16.8%)" stroke-width="1.5"></path><path d="M1277.15 823.43L1440.39 847.08" stroke="hsl(228, 90.9%, 16.8%)" stroke-width="1.5"></path><path d="M1420.35 64.84L1420.35 64.84" stroke="hsl(228, 90.9%, 16.8%)" stroke-width="1.5"></path><path d="M1420.35 64.84L1436.2 222.83" stroke="hsl(228, 90.9%, 16.8%)" stroke-width="1.5"></path><path d="M1420.35 64.84L1553.63 -49.49" stroke="hsl(228, 90.9%, 16.8%)" stroke-width="1.5"></path><path d="M1420.35 64.84L1603.34 56.64" stroke="hsl(228, 90.9%, 16.8%)" stroke-width="1.5"></path><path d="M1436.2 222.83L1436.2 222.83" stroke="hsl(228, 90.9%, 16.8%)" stroke-width="1.5"></path><path d="M1436.2 222.83L1588.99 216.86" stroke="hsl(228, 90.9%, 16.8%)" stroke-width="1.5"></path><path d="M1436.2 222.83L1422.06 377.57" stroke="hsl(228, 90.9%, 16.8%)" stroke-width="1.5"></path><path d="M1422.06 377.57L1422.06 377.57" stroke="hsl(228, 90.9%, 16.8%)" stroke-width="1.5"></path><path d="M1452.07 684.33L1452.07 684.33" stroke="hsl(228, 90.9%, 16.8%)" stroke-width="1.5"></path><path d="M1452.07 684.33L1549.72 643.81" stroke="hsl(228, 90.9%, 16.8%)" stroke-width="1.5"></path><path d="M1452.07 684.33L1552.81 810.5" stroke="hsl(228, 90.9%, 16.8%)" stroke-width="1.5"></path><path d="M1452.07 684.33L1440.39 847.08" stroke="hsl(228, 90.9%, 16.8%)" stroke-width="1.5"></path><path d="M1452.07 684.33L1398.09 491.91" stroke="hsl(228, 90.9%, 16.8%)" stroke-width="1.5"></path><path d="M1452.07 684.33L1237.6 655.91" stroke="hsl(228, 90.9%, 16.8%)" stroke-width="1.5"></path><path d="M1440.39 847.08L1440.39 847.08" stroke="hsl(228, 90.9%, 16.8%)" stroke-width="1.5"></path><path d="M1440.39 847.08L1552.81 810.5" stroke="hsl(228, 90.9%, 16.8%)" stroke-width="1.5"></path><path d="M1553.63 -49.49L1553.63 -49.49" stroke="hsl(228, 90.9%, 16.8%)" stroke-width="1.5"></path><path d="M1553.63 -49.49L1603.34 56.64" stroke="hsl(228, 90.9%, 16.8%)" stroke-width="1.5"></path><path d="M1553.63 -49.49L1588.99 216.86" stroke="hsl(228, 90.9%, 16.8%)" stroke-width="1.5"></path><path d="M1553.63 -49.49L1436.2 222.83" stroke="hsl(228, 90.9%, 16.8%)" stroke-width="1.5"></path><path d="M1603.34 56.64L1603.34 56.64" stroke="hsl(228, 90.9%, 16.8%)" stroke-width="1.5"></path><path d="M1603.34 56.64L1588.99 216.86" stroke="hsl(228, 90.9%, 16.8%)" stroke-width="1.5"></path><path d="M1588.99 216.86L1588.99 216.86" stroke="hsl(228, 90.9%, 16.8%)" stroke-width="1.5"></path><path d="M1574.01 490.61L1574.01 490.61" stroke="hsl(228, 90.9%, 16.8%)" stroke-width="1.5"></path><path d="M1574.01 490.61L1549.72 643.81" stroke="hsl(228, 90.9%, 16.8%)" stroke-width="1.5"></path><path d="M1549.72 643.81L1549.72 643.81" stroke="hsl(228, 90.9%, 16.8%)" stroke-width="1.5"></path><path d="M1552.81 810.5L1552.81 810.5" stroke="hsl(228, 90.9%, 16.8%)" stroke-width="1.5"></path><path d="M1552.81 810.5L1549.72 643.81" stroke="hsl(228, 90.9%, 16.8%)" stroke-width="1.5"></path><path d="M1552.81 810.5L1277.15 823.43" stroke="hsl(228, 90.9%, 16.8%)" stroke-width="1.5"></path><path d="M1552.81 810.5L1574.01 490.61" stroke="hsl(228, 90.9%, 16.8%)" stroke-width="1.5"></path><path d="M1552.81 810.5L1237.6 655.91" stroke="hsl(228, 90.9%, 16.8%)" stroke-width="1.5"></path><circle r="25" cx="-111.63" cy="531.17" fill="url(&quot;#SvgjsRadialGradient1011&quot;)"></circle><circle r="25" cx="55.26" cy="829.26" fill="url(&quot;#SvgjsRadialGradient1011&quot;)"></circle><circle r="25" cx="191.82" cy="827.33" fill="url(&quot;#SvgjsRadialGradient1011&quot;)"></circle><circle r="25" cx="679.45" cy="531.59" fill="url(&quot;#SvgjsRadialGradient1011&quot;)"></circle><circle r="25" cx="845.24" cy="537.31" fill="url(&quot;#SvgjsRadialGradient1011&quot;)"></circle><circle r="25" cx="812.73" cy="671.55" fill="url(&quot;#SvgjsRadialGradient1011&quot;)"></circle><circle r="25" cx="1292.09" cy="390.72" fill="url(&quot;#SvgjsRadialGradient1011&quot;)"></circle><circle r="25" cx="1446.97" cy="-111.95" fill="url(&quot;#SvgjsRadialGradient1011&quot;)"></circle><circle r="25" cx="1398.09" cy="491.91" fill="url(&quot;#SvgjsRadialGradient1011&quot;)"></circle><circle r="5" cx="-86.13" cy="673.91" fill="#81879f"></circle><circle r="5" cx="-71.24" cy="810.09" fill="#81879f"></circle><circle r="5" cx="81.42" cy="525.21" fill="#81879f"></circle><circle r="5" cx="68.39" cy="643.77" fill="#81879f"></circle><circle r="5" cx="210.22" cy="512.52" fill="#81879f"></circle><circle r="5" cx="262.29" cy="645.15" fill="#81879f"></circle><circle r="5" cx="354.9" cy="682.21" fill="#81879f"></circle><circle r="5" cx="517.2" cy="557.51" fill="#81879f"></circle><circle r="5" cx="507.07" cy="653.43" fill="#81879f"></circle><circle r="5" cx="497.62" cy="855.99" fill="#81879f"></circle><circle r="5" cx="699.63" cy="826.16" fill="#81879f"></circle><circle r="5" cx="844.27" cy="813.35" fill="#81879f"></circle><circle r="5" cx="1006.25" cy="380.54" fill="#81879f"></circle><circle r="5" cx="997.05" cy="544.55" fill="#81879f"></circle><circle r="5" cx="960.71" cy="675.95" fill="#81879f"></circle><circle r="5" cx="1007.43" cy="826.58" fill="#81879f"></circle><circle r="5" cx="1145.5" cy="79.52" fill="#81879f"></circle><circle r="5" cx="1136.42" cy="226.37" fill="#81879f"></circle><circle r="5" cx="1160.73" cy="344.93" fill="#81879f"></circle><circle r="5" cx="1103.13" cy="558.33" fill="#81879f"></circle><circle r="5" cx="1108.51" cy="678.13" fill="#81879f"></circle><circle r="5" cx="1135.33" cy="820.85" fill="#81879f"></circle><circle r="5" cx="1239.01" cy="54.43" fill="#81879f"></circle><circle r="5" cx="1282.71" cy="217.66" fill="#81879f"></circle><circle r="5" cx="1260.87" cy="510.85" fill="#81879f"></circle><circle r="5" cx="1237.6" cy="655.91" fill="#81879f"></circle><circle r="5" cx="1277.15" cy="823.43" fill="#81879f"></circle><circle r="5" cx="1420.35" cy="64.84" fill="#81879f"></circle><circle r="5" cx="1436.2" cy="222.83" fill="#81879f"></circle><circle r="5" cx="1422.06" cy="377.57" fill="#81879f"></circle><circle r="5" cx="1452.07" cy="684.33" fill="#81879f"></circle><circle r="5" cx="1440.39" cy="847.08" fill="#81879f"></circle><circle r="5" cx="1553.63" cy="-49.49" fill="#81879f"></circle><circle r="5" cx="1603.34" cy="56.64" fill="#81879f"></circle><circle r="5" cx="1588.99" cy="216.86" fill="#81879f"></circle><circle r="5" cx="1574.01" cy="490.61" fill="#81879f"></circle><circle r="5" cx="1549.72" cy="643.81" fill="#81879f"></circle><circle r="5" cx="1552.81" cy="810.5" fill="#81879f"></circle></g><defs><mask id="SvgjsMask1010"><rect width="1440" height="650" fill="#ffffff"></rect></mask><radialGradient id="SvgjsRadialGradient1011"><stop stop-color="#ffffff" offset="0.1"></stop><stop stop-color="rgba(3, 15, 63, 1)" offset="0.2"></stop><stop stop-color="rgba(3, 15, 63, 0)" offset="1"></stop></radialGradient></defs></svg>